<svg width="36" height="36" viewBox="0 0 36 36" fill="none" xmlns="http://www.w3.org/2000/svg">
<path d="M31.9195 29H3.98968C3.72513 29 3.47141 28.8946 3.28435 28.7071C3.09728 28.5196 2.99219 28.2652 2.99219 28C2.99219 27.7348 3.09728 27.4804 3.28435 27.2929C3.47141 27.1054 3.72513 27 3.98968 27H31.9195C32.1841 27 32.4378 27.1054 32.6248 27.2929C32.8119 27.4804 32.917 27.7348 32.917 28C32.917 28.2652 32.8119 28.5196 32.6248 28.7071C32.4378 28.8946 32.1841 29 31.9195 29Z" fill="black"/>
<path d="M31.9195 19H3.98968C3.72513 19 3.47141 18.8946 3.28435 18.7071C3.09728 18.5196 2.99219 18.2652 2.99219 18C2.99219 17.7348 3.09728 17.4804 3.28435 17.2929C3.47141 17.1054 3.72513 17 3.98968 17H31.9195C32.1841 17 32.4378 17.1054 32.6248 17.2929C32.8119 17.4804 32.917 17.7348 32.917 18C32.917 18.2652 32.8119 18.5196 32.6248 18.7071C32.4378 18.8946 32.1841 19 31.9195 19Z" fill="black"/>
<path d="M31.9195 9H3.98968C3.72513 9 3.47141 8.89464 3.28435 8.70711C3.09728 8.51957 2.99219 8.26522 2.99219 8C2.99219 7.73478 3.09728 7.48043 3.28435 7.29289C3.47141 7.10536 3.72513 7 3.98968 7H31.9195C32.1841 7 32.4378 7.10536 32.6248 7.29289C32.8119 7.48043 32.917 7.73478 32.917 8C32.917 8.26522 32.8119 8.51957 32.6248 8.70711C32.4378 8.89464 32.1841 9 31.9195 9Z" fill="black"/>
</svg>
