<svg width="145" height="38" viewBox="0 0 145 38" fill="none" xmlns="http://www.w3.org/2000/svg">
<path d="M8.77148 7.91668V30.0833C8.77148 30.5033 8.93788 30.906 9.23407 31.2029C9.53026 31.4999 9.93198 31.6667 10.3508 31.6667H15.0889V28.5H11.9302V9.50001H15.0889V6.33334H10.3508C9.93198 6.33334 9.53026 6.50016 9.23407 6.79709C8.93788 7.09402 8.77148 7.49675 8.77148 7.91668ZM31.2648 6.38084L18.6299 3.21418C18.3971 3.15597 18.1542 3.1517 17.9195 3.20167C17.6848 3.25164 17.4646 3.35455 17.2755 3.50259C17.0865 3.65063 16.9335 3.8399 16.8283 4.05604C16.7231 4.27218 16.6684 4.50951 16.6683 4.75001V33.25C16.6678 33.4907 16.7221 33.7284 16.8271 33.9448C16.9321 34.1613 17.0851 34.3508 17.2743 34.499C17.4636 34.6472 17.684 34.75 17.919 34.7997C18.1539 34.8494 18.3971 34.8447 18.6299 34.7858L31.2648 31.6192C31.6066 31.5337 31.9101 31.3361 32.127 31.0578C32.344 30.7795 32.4619 30.4365 32.462 30.0833V7.91668C32.4619 7.56349 32.344 7.22048 32.127 6.94219C31.9101 6.6639 31.6066 6.46631 31.2648 6.38084V6.38084ZM24.5651 19.2977C24.5469 19.7054 24.3726 20.0903 24.0784 20.3723C23.7842 20.6544 23.3928 20.8118 22.9858 20.8118C22.5787 20.8118 22.1873 20.6544 21.8931 20.3723C21.5989 20.0903 21.4246 19.7054 21.4064 19.2977V18.7008C21.4066 18.2808 21.5732 17.8782 21.8695 17.5814C22.1659 17.2846 22.5677 17.118 22.9866 17.1182C23.4054 17.1184 23.8071 17.2854 24.1031 17.5825C24.3991 17.8796 24.5653 18.2824 24.5651 18.7023V19.2977V19.2977Z" fill="black"/>
<path d="M47.4343 18.25C48.1277 18.25 48.7343 18.1677 49.2543 18.003C49.7743 17.8297 50.2077 17.5913 50.5543 17.288C50.901 16.9847 51.161 16.625 51.3343 16.209C51.5077 15.7843 51.5943 15.3163 51.5943 14.805C51.5943 13.7823 51.2563 13.0023 50.5803 12.465C49.9043 11.9277 48.8817 11.659 47.5123 11.659H45.0423V18.25H47.4343ZM56.2483 28H53.5313C52.994 28 52.604 27.792 52.3613 27.376L47.9933 21.071C47.846 20.8543 47.6857 20.6983 47.5123 20.603C47.339 20.5077 47.079 20.46 46.7323 20.46H45.0423V28H42.0003V9.28H47.5123C48.743 9.28 49.8003 9.40567 50.6843 9.657C51.577 9.90833 52.3093 10.268 52.8813 10.736C53.4533 11.1953 53.8737 11.75 54.1423 12.4C54.4197 13.05 54.5583 13.7737 54.5583 14.571C54.5583 15.221 54.4587 15.8277 54.2593 16.391C54.0687 16.9543 53.787 17.4657 53.4143 17.925C53.0503 18.3843 52.5997 18.783 52.0623 19.121C51.525 19.459 50.914 19.7233 50.2293 19.914C50.602 20.1393 50.9227 20.4557 51.1913 20.863L56.2483 28ZM62.854 14.532C63.8333 14.532 64.7173 14.6923 65.506 15.013C66.3033 15.3337 66.9793 15.7887 67.534 16.378C68.0973 16.9673 68.5306 17.6823 68.834 18.523C69.1373 19.3637 69.289 20.3083 69.289 21.357C69.289 22.4057 69.1373 23.3503 68.834 24.191C68.5306 25.0317 68.0973 25.751 67.534 26.349C66.9793 26.9383 66.3033 27.3933 65.506 27.714C64.7173 28.0347 63.8333 28.195 62.854 28.195C61.866 28.195 60.9733 28.0347 60.176 27.714C59.3873 27.3933 58.7113 26.9383 58.148 26.349C57.5846 25.751 57.1513 25.0317 56.848 24.191C56.5446 23.3503 56.393 22.4057 56.393 21.357C56.393 20.3083 56.5446 19.3637 56.848 18.523C57.1513 17.6823 57.5846 16.9673 58.148 16.378C58.7113 15.7887 59.3873 15.3337 60.176 15.013C60.9733 14.6923 61.866 14.532 62.854 14.532ZM62.854 26.011C64.05 26.011 64.9383 25.6123 65.519 24.815C66.1083 24.009 66.403 22.8607 66.403 21.37C66.403 19.8793 66.1083 18.731 65.519 17.925C64.9383 17.1103 64.05 16.703 62.854 16.703C61.6406 16.703 60.7393 17.1103 60.15 17.925C59.5606 18.731 59.266 19.8793 59.266 21.37C59.266 22.8607 59.5606 24.009 60.15 24.815C60.7393 25.6123 61.6406 26.011 62.854 26.011ZM77.7075 14.532C78.6868 14.532 79.5708 14.6923 80.3595 15.013C81.1568 15.3337 81.8328 15.7887 82.3875 16.378C82.9508 16.9673 83.3842 17.6823 83.6875 18.523C83.9908 19.3637 84.1425 20.3083 84.1425 21.357C84.1425 22.4057 83.9908 23.3503 83.6875 24.191C83.3842 25.0317 82.9508 25.751 82.3875 26.349C81.8328 26.9383 81.1568 27.3933 80.3595 27.714C79.5708 28.0347 78.6868 28.195 77.7075 28.195C76.7195 28.195 75.8268 28.0347 75.0295 27.714C74.2408 27.3933 73.5648 26.9383 73.0015 26.349C72.4382 25.751 72.0048 25.0317 71.7015 24.191C71.3982 23.3503 71.2465 22.4057 71.2465 21.357C71.2465 20.3083 71.3982 19.3637 71.7015 18.523C72.0048 17.6823 72.4382 16.9673 73.0015 16.378C73.5648 15.7887 74.2408 15.3337 75.0295 15.013C75.8268 14.6923 76.7195 14.532 77.7075 14.532ZM77.7075 26.011C78.9035 26.011 79.7918 25.6123 80.3725 24.815C80.9618 24.009 81.2565 22.8607 81.2565 21.37C81.2565 19.8793 80.9618 18.731 80.3725 17.925C79.7918 17.1103 78.9035 16.703 77.7075 16.703C76.4942 16.703 75.5928 17.1103 75.0035 17.925C74.4142 18.731 74.1195 19.8793 74.1195 21.37C74.1195 22.8607 74.4142 24.009 75.0035 24.815C75.5928 25.6123 76.4942 26.011 77.7075 26.011ZM86.828 28V14.74H88.518C88.8993 14.74 89.142 14.9177 89.246 15.273L89.428 16.43C89.6707 16.1527 89.922 15.9013 90.182 15.676C90.442 15.442 90.7193 15.2427 91.014 15.078C91.3173 14.9047 91.638 14.7703 91.976 14.675C92.3227 14.5797 92.6953 14.532 93.094 14.532C93.5187 14.532 93.9087 14.5927 94.264 14.714C94.6193 14.8353 94.9313 15.0087 95.2 15.234C95.4773 15.4593 95.7157 15.7323 95.915 16.053C96.1143 16.3737 96.279 16.7333 96.409 17.132C96.6083 16.6727 96.8597 16.2783 97.163 15.949C97.4663 15.6197 97.8043 15.351 98.177 15.143C98.5497 14.935 98.944 14.7833 99.36 14.688C99.7847 14.584 100.214 14.532 100.647 14.532C101.358 14.532 101.99 14.6447 102.545 14.87C103.108 15.0953 103.581 15.4247 103.962 15.858C104.352 16.2827 104.647 16.807 104.846 17.431C105.045 18.055 105.145 18.7657 105.145 19.563V28H102.35V19.563C102.35 18.627 102.146 17.925 101.739 17.457C101.34 16.9803 100.747 16.742 99.958 16.742C99.6027 16.742 99.269 16.8027 98.957 16.924C98.645 17.0453 98.372 17.223 98.138 17.457C97.904 17.691 97.7177 17.9857 97.579 18.341C97.449 18.6877 97.384 19.095 97.384 19.563V28H94.589V19.563C94.589 18.5923 94.394 17.8817 94.004 17.431C93.614 16.9717 93.042 16.742 92.288 16.742C91.768 16.742 91.287 16.8763 90.845 17.145C90.403 17.405 89.9957 17.7647 89.623 18.224V28H86.828ZM116.327 17.145C116.258 17.2663 116.18 17.353 116.093 17.405C116.006 17.457 115.898 17.483 115.768 17.483C115.621 17.483 115.46 17.4397 115.287 17.353C115.114 17.2577 114.91 17.1537 114.676 17.041C114.442 16.9283 114.165 16.8287 113.844 16.742C113.532 16.6467 113.164 16.599 112.739 16.599C112.392 16.599 112.076 16.6423 111.79 16.729C111.513 16.807 111.274 16.924 111.075 17.08C110.884 17.2273 110.737 17.405 110.633 17.613C110.529 17.8123 110.477 18.029 110.477 18.263C110.477 18.575 110.572 18.835 110.763 19.043C110.954 19.251 111.205 19.433 111.517 19.589C111.829 19.7363 112.184 19.8707 112.583 19.992C112.982 20.1133 113.389 20.2433 113.805 20.382C114.221 20.5207 114.628 20.681 115.027 20.863C115.426 21.045 115.781 21.2703 116.093 21.539C116.405 21.799 116.656 22.1197 116.847 22.501C117.038 22.8737 117.133 23.3287 117.133 23.866C117.133 24.49 117.02 25.0663 116.795 25.595C116.57 26.1237 116.24 26.583 115.807 26.973C115.374 27.363 114.832 27.6663 114.182 27.883C113.541 28.0997 112.804 28.208 111.972 28.208C111.513 28.208 111.066 28.1647 110.633 28.078C110.208 28 109.801 27.8917 109.411 27.753C109.03 27.6057 108.67 27.4323 108.332 27.233C108.003 27.0337 107.708 26.817 107.448 26.583L108.098 25.517C108.176 25.387 108.271 25.2873 108.384 25.218C108.505 25.14 108.653 25.101 108.826 25.101C109.008 25.101 109.186 25.1617 109.359 25.283C109.541 25.3957 109.749 25.5213 109.983 25.66C110.226 25.7987 110.516 25.9287 110.854 26.05C111.192 26.1627 111.612 26.219 112.115 26.219C112.531 26.219 112.891 26.1713 113.194 26.076C113.497 25.972 113.749 25.8333 113.948 25.66C114.147 25.4867 114.295 25.2917 114.39 25.075C114.485 24.8497 114.533 24.6113 114.533 24.36C114.533 24.022 114.438 23.7447 114.247 23.528C114.056 23.3113 113.801 23.125 113.48 22.969C113.168 22.813 112.808 22.6743 112.401 22.553C112.002 22.4317 111.595 22.3017 111.179 22.163C110.763 22.0243 110.351 21.864 109.944 21.682C109.545 21.5 109.186 21.2703 108.865 20.993C108.553 20.707 108.302 20.3647 108.111 19.966C107.92 19.5587 107.825 19.0647 107.825 18.484C107.825 17.9553 107.929 17.4527 108.137 16.976C108.354 16.4993 108.666 16.079 109.073 15.715C109.489 15.351 109.996 15.065 110.594 14.857C111.201 14.6403 111.898 14.532 112.687 14.532C113.58 14.532 114.39 14.675 115.118 14.961C115.846 15.247 116.457 15.637 116.951 16.131L116.327 17.145ZM131.271 14.74L123.965 31.77C123.869 31.9693 123.752 32.1253 123.614 32.238C123.484 32.3507 123.28 32.407 123.003 32.407H120.936L123.38 27.103L117.972 14.74H120.403C120.637 14.74 120.814 14.7963 120.936 14.909C121.066 15.013 121.161 15.1387 121.222 15.286L124.381 22.813C124.459 23.0297 124.528 23.2463 124.589 23.463C124.658 23.671 124.723 23.8877 124.784 24.113C124.853 23.8877 124.922 23.6667 124.992 23.45C125.061 23.2333 125.139 23.0167 125.226 22.8L128.255 15.286C128.315 15.13 128.415 15 128.554 14.896C128.701 14.792 128.861 14.74 129.035 14.74H131.271Z" fill="black"/>
<path d="M135.111 15.433H133.881V19H132.867V15.433H131.637V14.629H135.111V15.433ZM140.54 14.629V19H139.646V16.486C139.646 16.428 139.647 16.365 139.649 16.297C139.653 16.229 139.659 16.16 139.667 16.09L138.506 18.337C138.47 18.407 138.421 18.46 138.359 18.496C138.299 18.532 138.23 18.55 138.152 18.55H138.014C137.936 18.55 137.866 18.532 137.804 18.496C137.744 18.46 137.696 18.407 137.66 18.337L136.499 16.084C136.505 16.156 136.51 16.227 136.514 16.297C136.518 16.365 136.52 16.428 136.52 16.486V19H135.626V14.629H136.4C136.444 14.629 136.482 14.63 136.514 14.632C136.548 14.634 136.578 14.64 136.604 14.65C136.63 14.66 136.653 14.676 136.673 14.698C136.695 14.718 136.716 14.747 136.736 14.785L137.861 17.002C137.901 17.078 137.939 17.157 137.975 17.239C138.013 17.321 138.049 17.405 138.083 17.491C138.117 17.403 138.152 17.317 138.188 17.233C138.226 17.149 138.266 17.069 138.308 16.993L139.43 14.785C139.45 14.747 139.47 14.718 139.49 14.698C139.512 14.676 139.536 14.66 139.562 14.65C139.588 14.64 139.617 14.634 139.649 14.632C139.683 14.63 139.722 14.629 139.766 14.629H140.54Z" fill="black"/>
</svg>
