<svg width="112" height="31" viewBox="0 0 112 31" fill="none" xmlns="http://www.w3.org/2000/svg">
<path d="M32.6054 8.808L31.2554 5.31C31.2154 5.206 31.1734 5.086 31.1294 4.95C31.0854 4.81 31.0434 4.662 31.0034 4.506C30.9194 4.83 30.8334 5.1 30.7454 5.316L29.3954 8.808H32.6054ZM35.0294 12H34.1294C34.0254 12 33.9414 11.974 33.8774 11.922C33.8134 11.87 33.7654 11.804 33.7334 11.724L32.9294 9.648H29.0714L28.2674 11.724C28.2434 11.796 28.1974 11.86 28.1294 11.916C28.0614 11.972 27.9774 12 27.8774 12H26.9774L30.4154 3.402H31.5914L35.0294 12ZM41.1165 5.922L38.6385 12H37.6785L35.2005 5.922H36.0705C36.1585 5.922 36.2305 5.944 36.2865 5.988C36.3425 6.032 36.3805 6.084 36.4005 6.144L37.9425 10.056C37.9905 10.204 38.0325 10.348 38.0685 10.488C38.1045 10.628 38.1385 10.768 38.1705 10.908C38.2025 10.768 38.2365 10.628 38.2725 10.488C38.3085 10.348 38.3525 10.204 38.4045 10.056L39.9645 6.144C39.9885 6.08 40.0285 6.028 40.0845 5.988C40.1405 5.944 40.2065 5.922 40.2825 5.922H41.1165ZM45.2611 9.264C44.7691 9.28 44.3491 9.32 44.0011 9.384C43.6571 9.444 43.3751 9.524 43.1551 9.624C42.9391 9.724 42.7811 9.842 42.6811 9.978C42.5851 10.114 42.5371 10.266 42.5371 10.434C42.5371 10.594 42.5631 10.732 42.6151 10.848C42.6671 10.964 42.7371 11.06 42.8251 11.136C42.9171 11.208 43.0231 11.262 43.1431 11.298C43.2671 11.33 43.3991 11.346 43.5391 11.346C43.7271 11.346 43.8991 11.328 44.0551 11.292C44.2111 11.252 44.3571 11.196 44.4931 11.124C44.6331 11.052 44.7651 10.966 44.8891 10.866C45.0171 10.766 45.1411 10.652 45.2611 10.524V9.264ZM41.8111 6.78C42.1471 6.456 42.5091 6.214 42.8971 6.054C43.2851 5.894 43.7151 5.814 44.1871 5.814C44.5271 5.814 44.8291 5.87 45.0931 5.982C45.3571 6.094 45.5791 6.25 45.7591 6.45C45.9391 6.65 46.0751 6.892 46.1671 7.176C46.2591 7.46 46.3051 7.772 46.3051 8.112V12H45.8311C45.7271 12 45.6471 11.984 45.5911 11.952C45.5351 11.916 45.4911 11.848 45.4591 11.748L45.3391 11.172C45.1791 11.32 45.0231 11.452 44.8711 11.568C44.7191 11.68 44.5591 11.776 44.3911 11.856C44.2231 11.932 44.0431 11.99 43.8511 12.03C43.6631 12.074 43.4531 12.096 43.2211 12.096C42.9851 12.096 42.7631 12.064 42.5551 12C42.3471 11.932 42.1651 11.832 42.0091 11.7C41.8571 11.568 41.7351 11.402 41.6431 11.202C41.5551 10.998 41.5111 10.758 41.5111 10.482C41.5111 10.242 41.5771 10.012 41.7091 9.792C41.8411 9.568 42.0551 9.37 42.3511 9.198C42.6471 9.026 43.0331 8.886 43.5091 8.778C43.9851 8.666 44.5691 8.602 45.2611 8.586V8.112C45.2611 7.64 45.1591 7.284 44.9551 7.044C44.7511 6.8 44.4531 6.678 44.0611 6.678C43.7971 6.678 43.5751 6.712 43.3951 6.78C43.2191 6.844 43.0651 6.918 42.9331 7.002C42.8051 7.082 42.6931 7.156 42.5971 7.224C42.5051 7.288 42.4131 7.32 42.3211 7.32C42.2491 7.32 42.1871 7.302 42.1351 7.266C42.0831 7.226 42.0391 7.178 42.0031 7.122L41.8111 6.78ZM49.0599 5.922V12H47.9919V5.922H49.0599ZM49.2879 4.014C49.2879 4.118 49.2659 4.216 49.2219 4.308C49.1819 4.396 49.1259 4.476 49.0539 4.548C48.9859 4.616 48.9039 4.67 48.8079 4.71C48.7159 4.75 48.6179 4.77 48.5139 4.77C48.4099 4.77 48.3119 4.75 48.2199 4.71C48.1319 4.67 48.0539 4.616 47.9859 4.548C47.9179 4.476 47.8639 4.396 47.8239 4.308C47.7839 4.216 47.7639 4.118 47.7639 4.014C47.7639 3.91 47.7839 3.812 47.8239 3.72C47.8639 3.624 47.9179 3.542 47.9859 3.474C48.0539 3.402 48.1319 3.346 48.2199 3.306C48.3119 3.266 48.4099 3.246 48.5139 3.246C48.6179 3.246 48.7159 3.266 48.8079 3.306C48.9039 3.346 48.9859 3.402 49.0539 3.474C49.1259 3.542 49.1819 3.624 49.2219 3.72C49.2659 3.812 49.2879 3.91 49.2879 4.014ZM51.9188 3.162V12H50.8507V3.162H51.9188ZM56.9447 9.264C56.4527 9.28 56.0327 9.32 55.6847 9.384C55.3407 9.444 55.0587 9.524 54.8387 9.624C54.6227 9.724 54.4647 9.842 54.3647 9.978C54.2687 10.114 54.2207 10.266 54.2207 10.434C54.2207 10.594 54.2467 10.732 54.2987 10.848C54.3507 10.964 54.4207 11.06 54.5087 11.136C54.6007 11.208 54.7067 11.262 54.8267 11.298C54.9507 11.33 55.0827 11.346 55.2227 11.346C55.4107 11.346 55.5827 11.328 55.7387 11.292C55.8947 11.252 56.0407 11.196 56.1767 11.124C56.3167 11.052 56.4487 10.966 56.5727 10.866C56.7007 10.766 56.8247 10.652 56.9447 10.524V9.264ZM53.4947 6.78C53.8307 6.456 54.1927 6.214 54.5807 6.054C54.9687 5.894 55.3987 5.814 55.8707 5.814C56.2107 5.814 56.5127 5.87 56.7767 5.982C57.0407 6.094 57.2627 6.25 57.4427 6.45C57.6227 6.65 57.7587 6.892 57.8507 7.176C57.9427 7.46 57.9887 7.772 57.9887 8.112V12H57.5147C57.4107 12 57.3307 11.984 57.2747 11.952C57.2187 11.916 57.1747 11.848 57.1427 11.748L57.0227 11.172C56.8627 11.32 56.7067 11.452 56.5547 11.568C56.4027 11.68 56.2427 11.776 56.0747 11.856C55.9067 11.932 55.7267 11.99 55.5347 12.03C55.3467 12.074 55.1367 12.096 54.9047 12.096C54.6687 12.096 54.4467 12.064 54.2387 12C54.0307 11.932 53.8487 11.832 53.6927 11.7C53.5407 11.568 53.4187 11.402 53.3267 11.202C53.2387 10.998 53.1947 10.758 53.1947 10.482C53.1947 10.242 53.2607 10.012 53.3927 9.792C53.5247 9.568 53.7387 9.37 54.0347 9.198C54.3307 9.026 54.7167 8.886 55.1927 8.778C55.6687 8.666 56.2527 8.602 56.9447 8.586V8.112C56.9447 7.64 56.8427 7.284 56.6387 7.044C56.4347 6.8 56.1367 6.678 55.7447 6.678C55.4807 6.678 55.2587 6.712 55.0787 6.78C54.9027 6.844 54.7487 6.918 54.6167 7.002C54.4887 7.082 54.3767 7.156 54.2807 7.224C54.1887 7.288 54.0967 7.32 54.0047 7.32C53.9327 7.32 53.8707 7.302 53.8187 7.266C53.7667 7.226 53.7227 7.178 53.6867 7.122L53.4947 6.78ZM60.6895 10.536C60.8855 10.8 61.0995 10.986 61.3315 11.094C61.5675 11.202 61.8255 11.256 62.1055 11.256C62.6775 11.256 63.1155 11.054 63.4195 10.65C63.7235 10.246 63.8755 9.644 63.8755 8.844C63.8755 8.1 63.7395 7.554 63.4675 7.206C63.1995 6.854 62.8155 6.678 62.3155 6.678C61.9675 6.678 61.6635 6.758 61.4035 6.918C61.1475 7.078 60.9095 7.304 60.6895 7.596V10.536ZM60.6895 6.798C60.9455 6.502 61.2335 6.266 61.5535 6.09C61.8775 5.914 62.2495 5.826 62.6695 5.826C63.0255 5.826 63.3455 5.894 63.6295 6.03C63.9175 6.166 64.1615 6.364 64.3615 6.624C64.5615 6.88 64.7135 7.192 64.8175 7.56C64.9255 7.928 64.9795 8.342 64.9795 8.802C64.9795 9.294 64.9195 9.742 64.7995 10.146C64.6795 10.55 64.5055 10.896 64.2775 11.184C64.0535 11.468 63.7795 11.69 63.4555 11.85C63.1315 12.006 62.7675 12.084 62.3635 12.084C61.9635 12.084 61.6255 12.01 61.3495 11.862C61.0775 11.71 60.8395 11.496 60.6355 11.22L60.5815 11.772C60.5495 11.924 60.4575 12 60.3055 12H59.6155V3.162H60.6895V6.798ZM67.4344 3.162V12H66.3664V3.162H67.4344ZM73.2343 8.298C73.2343 8.05 73.1983 7.824 73.1263 7.62C73.0583 7.412 72.9563 7.234 72.8203 7.086C72.6883 6.934 72.5263 6.818 72.3343 6.738C72.1423 6.654 71.9243 6.612 71.6803 6.612C71.1683 6.612 70.7623 6.762 70.4623 7.062C70.1663 7.358 69.9823 7.77 69.9103 8.298H73.2343ZM74.0983 11.148C73.9663 11.308 73.8083 11.448 73.6243 11.568C73.4403 11.684 73.2423 11.78 73.0303 11.856C72.8223 11.932 72.6063 11.988 72.3823 12.024C72.1583 12.064 71.9363 12.084 71.7163 12.084C71.2963 12.084 70.9083 12.014 70.5523 11.874C70.2003 11.73 69.8943 11.522 69.6343 11.25C69.3783 10.974 69.1783 10.634 69.0343 10.23C68.8903 9.826 68.8183 9.362 68.8183 8.838C68.8183 8.414 68.8823 8.018 69.0103 7.65C69.1423 7.282 69.3303 6.964 69.5743 6.696C69.8183 6.424 70.1163 6.212 70.4683 6.06C70.8203 5.904 71.2163 5.826 71.6563 5.826C72.0203 5.826 72.3563 5.888 72.6643 6.012C72.9763 6.132 73.2443 6.308 73.4683 6.54C73.6963 6.768 73.8743 7.052 74.0023 7.392C74.1303 7.728 74.1943 8.112 74.1943 8.544C74.1943 8.712 74.1763 8.824 74.1403 8.88C74.1043 8.936 74.0363 8.964 73.9363 8.964H69.8743C69.8863 9.348 69.9383 9.682 70.0303 9.966C70.1263 10.25 70.2583 10.488 70.4263 10.68C70.5943 10.868 70.7943 11.01 71.0263 11.106C71.2583 11.198 71.5183 11.244 71.8063 11.244C72.0743 11.244 72.3043 11.214 72.4963 11.154C72.6923 11.09 72.8603 11.022 73.0003 10.95C73.1403 10.878 73.2563 10.812 73.3483 10.752C73.4443 10.688 73.5263 10.656 73.5943 10.656C73.6823 10.656 73.7503 10.69 73.7983 10.758L74.0983 11.148ZM81.1385 5.826C81.5825 5.826 81.9825 5.9 82.3385 6.048C82.6945 6.196 82.9985 6.406 83.2505 6.678C83.5025 6.95 83.6945 7.28 83.8265 7.668C83.9625 8.052 84.0305 8.482 84.0305 8.958C84.0305 9.438 83.9625 9.87 83.8265 10.254C83.6945 10.638 83.5025 10.966 83.2505 11.238C82.9985 11.51 82.6945 11.72 82.3385 11.868C81.9825 12.012 81.5825 12.084 81.1385 12.084C80.6905 12.084 80.2865 12.012 79.9265 11.868C79.5705 11.72 79.2665 11.51 79.0145 11.238C78.7625 10.966 78.5685 10.638 78.4325 10.254C78.3005 9.87 78.2345 9.438 78.2345 8.958C78.2345 8.482 78.3005 8.052 78.4325 7.668C78.5685 7.28 78.7625 6.95 79.0145 6.678C79.2665 6.406 79.5705 6.196 79.9265 6.048C80.2865 5.9 80.6905 5.826 81.1385 5.826ZM81.1385 11.25C81.7385 11.25 82.1865 11.05 82.4825 10.65C82.7785 10.246 82.9265 9.684 82.9265 8.964C82.9265 8.24 82.7785 7.676 82.4825 7.272C82.1865 6.868 81.7385 6.666 81.1385 6.666C80.8345 6.666 80.5685 6.718 80.3405 6.822C80.1165 6.926 79.9285 7.076 79.7765 7.272C79.6285 7.468 79.5165 7.71 79.4405 7.998C79.3685 8.282 79.3325 8.604 79.3325 8.964C79.3325 9.684 79.4805 10.246 79.7765 10.65C80.0765 11.05 80.5305 11.25 81.1385 11.25ZM86.3931 6.804C86.5251 6.656 86.6651 6.522 86.8131 6.402C86.9611 6.282 87.1171 6.18 87.2811 6.096C87.4491 6.008 87.6251 5.942 87.8091 5.898C87.9971 5.85 88.1991 5.826 88.4151 5.826C88.7471 5.826 89.0391 5.882 89.2911 5.994C89.5471 6.102 89.7591 6.258 89.9271 6.462C90.0991 6.662 90.2291 6.904 90.3171 7.188C90.4051 7.472 90.4491 7.786 90.4491 8.13V12H89.3751V8.13C89.3751 7.67 89.2691 7.314 89.0571 7.062C88.8491 6.806 88.5311 6.678 88.1031 6.678C87.7871 6.678 87.4911 6.754 87.2151 6.906C86.9431 7.058 86.6911 7.264 86.4591 7.524V12H85.3851V5.922H86.0271C86.1791 5.922 86.2731 5.996 86.3091 6.144L86.3931 6.804ZM97.0128 12.096C96.5328 12.096 96.1628 11.962 95.9028 11.694C95.6468 11.426 95.5188 11.04 95.5188 10.536V6.816H94.7868C94.7228 6.816 94.6688 6.798 94.6248 6.762C94.5808 6.722 94.5588 6.662 94.5588 6.582V6.156L95.5548 6.03L95.8008 4.152C95.8128 4.092 95.8388 4.044 95.8788 4.008C95.9228 3.968 95.9788 3.948 96.0468 3.948H96.5868V6.042H98.3448V6.816H96.5868V10.464C96.5868 10.72 96.6488 10.91 96.7728 11.034C96.8968 11.158 97.0568 11.22 97.2528 11.22C97.3648 11.22 97.4608 11.206 97.5408 11.178C97.6248 11.146 97.6968 11.112 97.7568 11.076C97.8168 11.04 97.8668 11.008 97.9068 10.98C97.9508 10.948 97.9888 10.932 98.0208 10.932C98.0768 10.932 98.1268 10.966 98.1708 11.034L98.4828 11.544C98.2988 11.716 98.0768 11.852 97.8168 11.952C97.5568 12.048 97.2888 12.096 97.0128 12.096ZM100.522 6.732C100.782 6.456 101.07 6.236 101.386 6.072C101.702 5.908 102.066 5.826 102.478 5.826C102.81 5.826 103.102 5.882 103.354 5.994C103.61 6.102 103.822 6.258 103.99 6.462C104.162 6.662 104.292 6.904 104.38 7.188C104.468 7.472 104.512 7.786 104.512 8.13V12H103.438V8.13C103.438 7.67 103.332 7.314 103.12 7.062C102.912 6.806 102.594 6.678 102.166 6.678C101.85 6.678 101.554 6.754 101.278 6.906C101.006 7.058 100.754 7.264 100.522 7.524V12H99.4476V3.162H100.522V6.732ZM110.207 8.298C110.207 8.05 110.171 7.824 110.099 7.62C110.031 7.412 109.929 7.234 109.793 7.086C109.661 6.934 109.499 6.818 109.307 6.738C109.115 6.654 108.897 6.612 108.653 6.612C108.141 6.612 107.735 6.762 107.435 7.062C107.139 7.358 106.955 7.77 106.883 8.298H110.207ZM111.071 11.148C110.939 11.308 110.781 11.448 110.597 11.568C110.413 11.684 110.215 11.78 110.003 11.856C109.795 11.932 109.579 11.988 109.355 12.024C109.131 12.064 108.909 12.084 108.689 12.084C108.269 12.084 107.881 12.014 107.525 11.874C107.173 11.73 106.867 11.522 106.607 11.25C106.351 10.974 106.151 10.634 106.007 10.23C105.863 9.826 105.791 9.362 105.791 8.838C105.791 8.414 105.855 8.018 105.983 7.65C106.115 7.282 106.303 6.964 106.547 6.696C106.791 6.424 107.089 6.212 107.441 6.06C107.793 5.904 108.189 5.826 108.629 5.826C108.993 5.826 109.329 5.888 109.637 6.012C109.949 6.132 110.217 6.308 110.441 6.54C110.669 6.768 110.847 7.052 110.975 7.392C111.103 7.728 111.167 8.112 111.167 8.544C111.167 8.712 111.149 8.824 111.113 8.88C111.077 8.936 111.009 8.964 110.909 8.964H106.847C106.859 9.348 106.911 9.682 107.003 9.966C107.099 10.25 107.231 10.488 107.399 10.68C107.567 10.868 107.767 11.01 107.999 11.106C108.231 11.198 108.491 11.244 108.779 11.244C109.047 11.244 109.277 11.214 109.469 11.154C109.665 11.09 109.833 11.022 109.973 10.95C110.113 10.878 110.229 10.812 110.321 10.752C110.417 10.688 110.499 10.656 110.567 10.656C110.655 10.656 110.723 10.69 110.771 10.758L111.071 11.148Z" fill="#858585"/>
<path d="M33.475 24.178L32.243 20.811C32.1823 20.6617 32.1193 20.4843 32.054 20.279C31.9887 20.0737 31.9233 19.852 31.858 19.614C31.7973 19.852 31.7343 20.076 31.669 20.286C31.6037 20.4913 31.5407 20.671 31.48 20.825L30.255 24.178H33.475ZM36.8 28H35.344C35.1807 28 35.0477 27.9603 34.945 27.881C34.8423 27.797 34.7653 27.6943 34.714 27.573L33.958 25.508H29.765L29.009 27.573C28.9717 27.6803 28.8993 27.7783 28.792 27.867C28.6847 27.9557 28.5517 28 28.393 28H26.923L30.906 17.878H32.824L36.8 28ZM39.3037 26.138C39.4997 26.376 39.712 26.544 39.9407 26.642C40.174 26.74 40.426 26.789 40.6967 26.789C40.958 26.789 41.1937 26.74 41.4037 26.642C41.6137 26.544 41.791 26.3947 41.9357 26.194C42.085 25.9933 42.1994 25.7413 42.2787 25.438C42.358 25.13 42.3977 24.7683 42.3977 24.353C42.3977 23.933 42.3627 23.5783 42.2927 23.289C42.2274 22.995 42.1317 22.757 42.0057 22.575C41.8797 22.393 41.7257 22.26 41.5437 22.176C41.3664 22.092 41.1634 22.05 40.9347 22.05C40.5754 22.05 40.2697 22.127 40.0177 22.281C39.7657 22.4303 39.5277 22.6427 39.3037 22.918V26.138ZM39.2127 21.798C39.5067 21.4667 39.8404 21.1983 40.2137 20.993C40.587 20.7877 41.0257 20.685 41.5297 20.685C41.9217 20.685 42.2787 20.7667 42.6007 20.93C42.9274 21.0933 43.2074 21.3313 43.4407 21.644C43.6787 21.952 43.8607 22.3347 43.9867 22.792C44.1174 23.2447 44.1827 23.765 44.1827 24.353C44.1827 24.8897 44.1104 25.3867 43.9657 25.844C43.821 26.3013 43.6134 26.698 43.3427 27.034C43.0767 27.37 42.7524 27.6337 42.3697 27.825C41.9917 28.0117 41.567 28.105 41.0957 28.105C40.6944 28.105 40.3514 28.0443 40.0667 27.923C39.782 27.797 39.5277 27.6243 39.3037 27.405V30.345H37.5747V20.818H38.6317C38.8557 20.818 39.0027 20.923 39.0727 21.133L39.2127 21.798ZM47.2607 26.138C47.4567 26.376 47.6691 26.544 47.8977 26.642C48.1311 26.74 48.3831 26.789 48.6537 26.789C48.9151 26.789 49.1507 26.74 49.3607 26.642C49.5707 26.544 49.7481 26.3947 49.8927 26.194C50.0421 25.9933 50.1564 25.7413 50.2357 25.438C50.3151 25.13 50.3547 24.7683 50.3547 24.353C50.3547 23.933 50.3197 23.5783 50.2497 23.289C50.1844 22.995 50.0887 22.757 49.9627 22.575C49.8367 22.393 49.6827 22.26 49.5007 22.176C49.3234 22.092 49.1204 22.05 48.8917 22.05C48.5324 22.05 48.2267 22.127 47.9747 22.281C47.7227 22.4303 47.4847 22.6427 47.2607 22.918V26.138ZM47.1697 21.798C47.4637 21.4667 47.7974 21.1983 48.1707 20.993C48.5441 20.7877 48.9827 20.685 49.4867 20.685C49.8787 20.685 50.2357 20.7667 50.5577 20.93C50.8844 21.0933 51.1644 21.3313 51.3977 21.644C51.6357 21.952 51.8177 22.3347 51.9437 22.792C52.0744 23.2447 52.1397 23.765 52.1397 24.353C52.1397 24.8897 52.0674 25.3867 51.9227 25.844C51.7781 26.3013 51.5704 26.698 51.2997 27.034C51.0337 27.37 50.7094 27.6337 50.3267 27.825C49.9487 28.0117 49.5241 28.105 49.0527 28.105C48.6514 28.105 48.3084 28.0443 48.0237 27.923C47.7391 27.797 47.4847 27.6243 47.2607 27.405V30.345H45.5317V20.818H46.5887C46.8127 20.818 46.9597 20.923 47.0297 21.133L47.1697 21.798ZM57.8708 22.218C57.8241 22.2927 57.7751 22.3463 57.7238 22.379C57.6724 22.407 57.6071 22.421 57.5278 22.421C57.4438 22.421 57.3528 22.3977 57.2548 22.351C57.1614 22.3043 57.0518 22.253 56.9258 22.197C56.7998 22.1363 56.6551 22.0827 56.4918 22.036C56.3331 21.9893 56.1441 21.966 55.9248 21.966C55.5841 21.966 55.3158 22.0383 55.1198 22.183C54.9284 22.3277 54.8328 22.5167 54.8328 22.75C54.8328 22.904 54.8818 23.0347 54.9798 23.142C55.0824 23.2447 55.2154 23.3357 55.3788 23.415C55.5468 23.4943 55.7358 23.5667 55.9458 23.632C56.1558 23.6927 56.3681 23.7603 56.5828 23.835C56.8021 23.9097 57.0168 23.996 57.2268 24.094C57.4368 24.1873 57.6234 24.3087 57.7868 24.458C57.9548 24.6027 58.0878 24.7777 58.1858 24.983C58.2884 25.1883 58.3398 25.4357 58.3398 25.725C58.3398 26.0703 58.2768 26.39 58.1508 26.684C58.0294 26.9733 57.8474 27.2253 57.6048 27.44C57.3621 27.65 57.0611 27.8157 56.7018 27.937C56.3471 28.0537 55.9364 28.112 55.4698 28.112C55.2224 28.112 54.9798 28.0887 54.7418 28.042C54.5084 28 54.2821 27.9393 54.0628 27.86C53.8481 27.7807 53.6474 27.6873 53.4608 27.58C53.2788 27.4727 53.1178 27.356 52.9778 27.23L53.3768 26.572C53.4281 26.4927 53.4888 26.432 53.5588 26.39C53.6288 26.348 53.7174 26.327 53.8248 26.327C53.9321 26.327 54.0324 26.3573 54.1258 26.418C54.2238 26.4787 54.3358 26.544 54.4618 26.614C54.5878 26.684 54.7348 26.7493 54.9028 26.81C55.0754 26.8707 55.2924 26.901 55.5538 26.901C55.7591 26.901 55.9341 26.8777 56.0788 26.831C56.2281 26.7797 56.3494 26.7143 56.4428 26.635C56.5408 26.5557 56.6108 26.4647 56.6528 26.362C56.6994 26.2547 56.7228 26.145 56.7228 26.033C56.7228 25.865 56.6714 25.7273 56.5688 25.62C56.4708 25.5127 56.3378 25.4193 56.1698 25.34C56.0064 25.2607 55.8174 25.1907 55.6028 25.13C55.3928 25.0647 55.1758 24.9947 54.9518 24.92C54.7324 24.8453 54.5154 24.759 54.3008 24.661C54.0908 24.5583 53.9018 24.43 53.7338 24.276C53.5704 24.122 53.4374 23.933 53.3348 23.709C53.2368 23.485 53.1878 23.2143 53.1878 22.897C53.1878 22.603 53.2461 22.323 53.3628 22.057C53.4794 21.791 53.6498 21.56 53.8738 21.364C54.1024 21.1633 54.3848 21.0047 54.7208 20.888C55.0614 20.7667 55.4534 20.706 55.8968 20.706C56.3914 20.706 56.8418 20.7877 57.2478 20.951C57.6538 21.1143 57.9921 21.329 58.2628 21.595L57.8708 22.218ZM62.0351 28.112C61.4098 28.112 60.9291 27.937 60.5931 27.587C60.2618 27.2323 60.0961 26.7447 60.0961 26.124V22.113H59.3611C59.2678 22.113 59.1884 22.0827 59.1231 22.022C59.0578 21.9613 59.0251 21.8703 59.0251 21.749V21.063L60.1801 20.874L60.5441 18.914C60.5674 18.8207 60.6118 18.7483 60.6771 18.697C60.7424 18.6457 60.8264 18.62 60.9291 18.62H61.8251V20.881H63.7431V22.113H61.8251V26.005C61.8251 26.229 61.8788 26.404 61.9861 26.53C62.0981 26.656 62.2498 26.719 62.4411 26.719C62.5484 26.719 62.6371 26.7073 62.7071 26.684C62.7818 26.656 62.8448 26.628 62.8961 26.6C62.9521 26.572 63.0011 26.5463 63.0431 26.523C63.0851 26.495 63.1271 26.481 63.1691 26.481C63.2204 26.481 63.2624 26.495 63.2951 26.523C63.3278 26.5463 63.3628 26.5837 63.4001 26.635L63.9181 27.475C63.6661 27.685 63.3768 27.8437 63.0501 27.951C62.7234 28.0583 62.3851 28.112 62.0351 28.112ZM67.9734 20.706C68.5054 20.706 68.9884 20.7923 69.4224 20.965C69.8611 21.1377 70.2344 21.3827 70.5424 21.7C70.8551 22.0173 71.0954 22.4047 71.2634 22.862C71.4314 23.3193 71.5154 23.8303 71.5154 24.395C71.5154 24.9643 71.4314 25.4777 71.2634 25.935C71.0954 26.3923 70.8551 26.782 70.5424 27.104C70.2344 27.426 69.8611 27.6733 69.4224 27.846C68.9884 28.0187 68.5054 28.105 67.9734 28.105C67.4367 28.105 66.9491 28.0187 66.5104 27.846C66.0717 27.6733 65.6961 27.426 65.3834 27.104C65.0754 26.782 64.8351 26.3923 64.6624 25.935C64.4944 25.4777 64.4104 24.9643 64.4104 24.395C64.4104 23.8303 64.4944 23.3193 64.6624 22.862C64.8351 22.4047 65.0754 22.0173 65.3834 21.7C65.6961 21.3827 66.0717 21.1377 66.5104 20.965C66.9491 20.7923 67.4367 20.706 67.9734 20.706ZM67.9734 26.775C68.5707 26.775 69.0117 26.5743 69.2964 26.173C69.5857 25.7717 69.7304 25.1837 69.7304 24.409C69.7304 23.6343 69.5857 23.044 69.2964 22.638C69.0117 22.232 68.5707 22.029 67.9734 22.029C67.3667 22.029 66.9164 22.2343 66.6224 22.645C66.3331 23.051 66.1884 23.639 66.1884 24.409C66.1884 25.179 66.3331 25.767 66.6224 26.173C66.9164 26.5743 67.3667 26.775 67.9734 26.775ZM74.4655 22.064C74.6895 21.6347 74.9555 21.2987 75.2635 21.056C75.5715 20.8087 75.9355 20.685 76.3555 20.685C76.6868 20.685 76.9528 20.7573 77.1535 20.902L77.0415 22.197C77.0181 22.281 76.9831 22.3417 76.9365 22.379C76.8945 22.4117 76.8361 22.428 76.7615 22.428C76.6915 22.428 76.5865 22.4163 76.4465 22.393C76.3111 22.3697 76.1781 22.358 76.0475 22.358C75.8561 22.358 75.6858 22.386 75.5365 22.442C75.3871 22.498 75.2518 22.5797 75.1305 22.687C75.0138 22.7897 74.9088 22.9157 74.8155 23.065C74.7268 23.2143 74.6428 23.3847 74.5635 23.576V28H72.8345V20.818H73.8495C74.0268 20.818 74.1505 20.8507 74.2205 20.916C74.2905 20.9767 74.3371 21.0887 74.3605 21.252L74.4655 22.064ZM82.479 23.583C82.479 23.359 82.4464 23.149 82.381 22.953C82.3204 22.7523 82.227 22.5773 82.101 22.428C81.975 22.2787 81.814 22.162 81.618 22.078C81.4267 21.9893 81.2027 21.945 80.946 21.945C80.4467 21.945 80.0524 22.0873 79.763 22.372C79.4784 22.6567 79.2964 23.0603 79.217 23.583H82.479ZM79.182 24.626C79.21 24.9947 79.2754 25.3143 79.378 25.585C79.4807 25.851 79.616 26.0727 79.784 26.25C79.952 26.4227 80.1504 26.5533 80.379 26.642C80.6124 26.726 80.869 26.768 81.149 26.768C81.429 26.768 81.6694 26.7353 81.87 26.67C82.0754 26.6047 82.2527 26.5323 82.402 26.453C82.556 26.3737 82.689 26.3013 82.801 26.236C82.9177 26.1707 83.0297 26.138 83.137 26.138C83.2817 26.138 83.389 26.1917 83.459 26.299L83.956 26.929C83.7647 27.153 83.55 27.342 83.312 27.496C83.074 27.6453 82.8244 27.7667 82.563 27.86C82.3064 27.9487 82.0427 28.0117 81.772 28.049C81.506 28.0863 81.247 28.105 80.995 28.105C80.4957 28.105 80.0314 28.0233 79.602 27.86C79.1727 27.692 78.7994 27.447 78.482 27.125C78.1647 26.7983 77.915 26.397 77.733 25.921C77.551 25.4403 77.46 24.885 77.46 24.255C77.46 23.765 77.5394 23.3053 77.698 22.876C77.8567 22.442 78.083 22.0663 78.377 21.749C78.6757 21.427 79.0374 21.1727 79.462 20.986C79.8914 20.7993 80.3744 20.706 80.911 20.706C81.3637 20.706 81.7814 20.7783 82.164 20.923C82.5467 21.0677 82.8757 21.28 83.151 21.56C83.4264 21.8353 83.641 22.176 83.795 22.582C83.9537 22.9833 84.033 23.443 84.033 23.961C84.033 24.2223 84.005 24.3997 83.949 24.493C83.893 24.5817 83.7857 24.626 83.627 24.626H79.182Z" fill="black"/>
<g clip-path="url(#clip0_137_4153)">
<path d="M13.5565 7.00901C13.5153 6.96626 12.0301 7.02588 10.7377 8.32751C9.44534 9.62801 9.64417 11.1198 9.67327 11.158C9.70237 11.1963 11.5161 11.2559 12.6739 9.74276C13.8317 8.22963 13.5977 7.05288 13.5565 7.00901V7.00901ZM17.5743 20.2086C17.5161 20.1006 14.7556 18.8204 15.0126 16.3589C15.2696 13.8963 17.0433 13.2213 17.0712 13.1481C17.0991 13.075 16.3474 12.2594 15.5509 11.8465C14.966 11.5554 14.3188 11.3886 13.6559 11.3583C13.525 11.3549 13.0704 11.2514 12.1356 11.4888C11.5197 11.6451 10.1315 12.1514 9.74965 12.1716C9.36654 12.1919 8.2269 11.5844 7.00119 11.4235C6.21678 11.2829 5.38509 11.5709 4.78981 11.7925C4.19574 12.013 3.06581 12.6408 2.27534 14.3091C1.48487 15.9764 1.89829 18.6179 2.19411 19.4391C2.48993 20.2593 2.95184 21.6036 3.73746 22.5846C4.43579 23.6916 5.36205 24.46 5.7488 24.721C6.13555 24.982 7.22669 25.1553 7.98321 24.7964C8.59183 24.4499 9.69024 24.2508 10.1243 24.2654C10.5571 24.28 11.4106 24.4386 12.2847 24.8718C12.977 25.0934 13.6317 25.0011 14.2876 24.7536C14.9435 24.505 15.8928 23.5623 17.0009 21.6509C17.4216 20.7621 17.6131 20.2818 17.5743 20.2086V20.2086Z" fill="black"/>
<path d="M13.5565 7.00901C13.5153 6.96626 12.0301 7.02588 10.7377 8.32751C9.44534 9.62801 9.64417 11.1198 9.67327 11.158C9.70237 11.1963 11.5161 11.2559 12.6739 9.74276C13.8317 8.22963 13.5977 7.05288 13.5565 7.00901V7.00901ZM17.5743 20.2086C17.5161 20.1006 14.7556 18.8204 15.0126 16.3589C15.2696 13.8963 17.0433 13.2213 17.0712 13.1481C17.0991 13.075 16.3474 12.2594 15.5509 11.8465C14.966 11.5554 14.3188 11.3886 13.6559 11.3583C13.525 11.3549 13.0704 11.2514 12.1356 11.4888C11.5197 11.6451 10.1315 12.1514 9.74965 12.1716C9.36654 12.1919 8.2269 11.5844 7.00119 11.4235C6.21678 11.2829 5.38509 11.5709 4.78981 11.7925C4.19574 12.013 3.06581 12.6408 2.27534 14.3091C1.48487 15.9764 1.89829 18.6179 2.19411 19.4391C2.48993 20.2593 2.95184 21.6036 3.73746 22.5846C4.43579 23.6916 5.36205 24.46 5.7488 24.721C6.13555 24.982 7.22669 25.1553 7.98321 24.7964C8.59183 24.4499 9.69024 24.2508 10.1243 24.2654C10.5571 24.28 11.4106 24.4386 12.2847 24.8718C12.977 25.0934 13.6317 25.0011 14.2876 24.7536C14.9435 24.505 15.8928 23.5623 17.0009 21.6509C17.4216 20.7621 17.6131 20.2818 17.5743 20.2086V20.2086Z" fill="black"/>
</g>
<defs>
<clipPath id="clip0_137_4153">
<rect width="19.3981" height="18" fill="white" transform="translate(0 7)"/>
</clipPath>
</defs>
</svg>
