<svg width="24" height="24" viewBox="0 0 24 24" fill="none" xmlns="http://www.w3.org/2000/svg">
<path d="M22.67 0.363525H1.33C0.978071 0.366063 0.641298 0.502756 0.39244 0.744073C0.143581 0.98539 0.00261668 1.31196 0 1.65322V22.3466C0.00261668 22.6878 0.143581 23.0144 0.39244 23.2557C0.641298 23.497 0.978071 23.6337 1.33 23.6363H12.82V14.6375H9.7V11.1175H12.82V8.52837C12.82 5.52231 14.71 3.88353 17.49 3.88353C18.42 3.88353 19.35 3.88353 20.28 4.01928V7.1514H18.37C16.86 7.1514 16.57 7.84959 16.57 8.86777V11.1078H20.17L19.7 14.6278H16.57V23.6363H22.67C23.0219 23.6337 23.3587 23.497 23.6076 23.2557C23.8564 23.0144 23.9974 22.6878 24 22.3466V1.65322C23.9974 1.31196 23.8564 0.98539 23.6076 0.744073C23.3587 0.502756 23.0219 0.366063 22.67 0.363525V0.363525Z" fill="black"/>
</svg>
