<svg width="111" height="31" viewBox="0 0 111 31" fill="none" xmlns="http://www.w3.org/2000/svg">
<path d="M35.0234 7.866V11.166C34.5914 11.478 34.1294 11.712 33.6374 11.868C33.1494 12.02 32.6134 12.096 32.0294 12.096C31.3374 12.096 30.7134 11.99 30.1574 11.778C29.6014 11.562 29.1254 11.262 28.7294 10.878C28.3374 10.49 28.0354 10.026 27.8234 9.486C27.6114 8.946 27.5054 8.352 27.5054 7.704C27.5054 7.048 27.6074 6.45 27.8114 5.91C28.0194 5.37 28.3134 4.908 28.6934 4.524C29.0734 4.136 29.5354 3.836 30.0794 3.624C30.6234 3.412 31.2314 3.306 31.9034 3.306C32.2434 3.306 32.5594 3.332 32.8514 3.384C33.1434 3.432 33.4134 3.504 33.6614 3.6C33.9094 3.692 34.1394 3.806 34.3514 3.942C34.5634 4.074 34.7614 4.224 34.9454 4.392L34.6154 4.92C34.5634 5 34.4954 5.052 34.4114 5.076C34.3314 5.096 34.2414 5.076 34.1414 5.016C34.0454 4.96 33.9354 4.892 33.8114 4.812C33.6874 4.732 33.5354 4.656 33.3554 4.584C33.1794 4.508 32.9694 4.444 32.7254 4.392C32.4854 4.34 32.1994 4.314 31.8674 4.314C31.3834 4.314 30.9454 4.394 30.5534 4.554C30.1614 4.71 29.8274 4.936 29.5514 5.232C29.2754 5.524 29.0634 5.88 28.9154 6.3C28.7674 6.716 28.6934 7.184 28.6934 7.704C28.6934 8.244 28.7694 8.728 28.9214 9.156C29.0774 9.58 29.2974 9.942 29.5814 10.242C29.8694 10.538 30.2174 10.764 30.6254 10.92C31.0334 11.076 31.4914 11.154 31.9994 11.154C32.3994 11.154 32.7534 11.11 33.0614 11.022C33.3734 10.93 33.6774 10.804 33.9734 10.644V8.754H32.6354C32.5594 8.754 32.4974 8.732 32.4494 8.688C32.4054 8.644 32.3834 8.59 32.3834 8.526V7.866H35.0234ZM40.5507 8.298C40.5507 8.05 40.5147 7.824 40.4427 7.62C40.3747 7.412 40.2727 7.234 40.1367 7.086C40.0047 6.934 39.8427 6.818 39.6507 6.738C39.4587 6.654 39.2407 6.612 38.9967 6.612C38.4847 6.612 38.0787 6.762 37.7787 7.062C37.4827 7.358 37.2987 7.77 37.2267 8.298H40.5507ZM41.4147 11.148C41.2827 11.308 41.1247 11.448 40.9407 11.568C40.7567 11.684 40.5587 11.78 40.3467 11.856C40.1387 11.932 39.9227 11.988 39.6987 12.024C39.4747 12.064 39.2527 12.084 39.0327 12.084C38.6127 12.084 38.2247 12.014 37.8687 11.874C37.5167 11.73 37.2107 11.522 36.9507 11.25C36.6947 10.974 36.4947 10.634 36.3507 10.23C36.2067 9.826 36.1347 9.362 36.1347 8.838C36.1347 8.414 36.1987 8.018 36.3267 7.65C36.4587 7.282 36.6467 6.964 36.8907 6.696C37.1347 6.424 37.4327 6.212 37.7847 6.06C38.1367 5.904 38.5327 5.826 38.9727 5.826C39.3367 5.826 39.6727 5.888 39.9807 6.012C40.2927 6.132 40.5607 6.308 40.7847 6.54C41.0127 6.768 41.1907 7.052 41.3187 7.392C41.4467 7.728 41.5107 8.112 41.5107 8.544C41.5107 8.712 41.4927 8.824 41.4567 8.88C41.4207 8.936 41.3527 8.964 41.2527 8.964H37.1907C37.2027 9.348 37.2547 9.682 37.3467 9.966C37.4427 10.25 37.5747 10.488 37.7427 10.68C37.9107 10.868 38.1107 11.01 38.3427 11.106C38.5747 11.198 38.8347 11.244 39.1227 11.244C39.3907 11.244 39.6207 11.214 39.8127 11.154C40.0087 11.09 40.1767 11.022 40.3167 10.95C40.4567 10.878 40.5727 10.812 40.6647 10.752C40.7607 10.688 40.8427 10.656 40.9107 10.656C40.9987 10.656 41.0667 10.69 41.1147 10.758L41.4147 11.148ZM44.6417 12.096C44.1617 12.096 43.7917 11.962 43.5317 11.694C43.2757 11.426 43.1477 11.04 43.1477 10.536V6.816H42.4157C42.3517 6.816 42.2977 6.798 42.2537 6.762C42.2097 6.722 42.1877 6.662 42.1877 6.582V6.156L43.1837 6.03L43.4297 4.152C43.4417 4.092 43.4677 4.044 43.5077 4.008C43.5517 3.968 43.6077 3.948 43.6757 3.948H44.2157V6.042H45.9737V6.816H44.2157V10.464C44.2157 10.72 44.2777 10.91 44.4017 11.034C44.5257 11.158 44.6857 11.22 44.8817 11.22C44.9937 11.22 45.0897 11.206 45.1697 11.178C45.2537 11.146 45.3257 11.112 45.3857 11.076C45.4457 11.04 45.4957 11.008 45.5357 10.98C45.5797 10.948 45.6177 10.932 45.6497 10.932C45.7057 10.932 45.7557 10.966 45.7997 11.034L46.1117 11.544C45.9277 11.716 45.7057 11.852 45.4457 11.952C45.1857 12.048 44.9177 12.096 44.6417 12.096ZM51.2748 5.922V12H50.2068V5.922H51.2748ZM51.5028 4.014C51.5028 4.118 51.4808 4.216 51.4368 4.308C51.3968 4.396 51.3408 4.476 51.2688 4.548C51.2008 4.616 51.1188 4.67 51.0228 4.71C50.9308 4.75 50.8328 4.77 50.7288 4.77C50.6248 4.77 50.5268 4.75 50.4348 4.71C50.3468 4.67 50.2688 4.616 50.2008 4.548C50.1328 4.476 50.0788 4.396 50.0388 4.308C49.9988 4.216 49.9788 4.118 49.9788 4.014C49.9788 3.91 49.9988 3.812 50.0388 3.72C50.0788 3.624 50.1328 3.542 50.2008 3.474C50.2688 3.402 50.3468 3.346 50.4348 3.306C50.5268 3.266 50.6248 3.246 50.7288 3.246C50.8328 3.246 50.9308 3.266 51.0228 3.306C51.1188 3.346 51.2008 3.402 51.2688 3.474C51.3408 3.542 51.3968 3.624 51.4368 3.72C51.4808 3.812 51.5028 3.91 51.5028 4.014ZM54.8956 12.096C54.4156 12.096 54.0456 11.962 53.7856 11.694C53.5296 11.426 53.4016 11.04 53.4016 10.536V6.816H52.6696C52.6056 6.816 52.5516 6.798 52.5076 6.762C52.4636 6.722 52.4416 6.662 52.4416 6.582V6.156L53.4376 6.03L53.6836 4.152C53.6956 4.092 53.7216 4.044 53.7616 4.008C53.8056 3.968 53.8616 3.948 53.9296 3.948H54.4696V6.042H56.2276V6.816H54.4696V10.464C54.4696 10.72 54.5316 10.91 54.6556 11.034C54.7796 11.158 54.9396 11.22 55.1356 11.22C55.2476 11.22 55.3436 11.206 55.4236 11.178C55.5076 11.146 55.5796 11.112 55.6396 11.076C55.6996 11.04 55.7496 11.008 55.7896 10.98C55.8336 10.948 55.8716 10.932 55.9036 10.932C55.9596 10.932 56.0096 10.966 56.0536 11.034L56.3656 11.544C56.1816 11.716 55.9596 11.852 55.6996 11.952C55.4396 12.048 55.1716 12.096 54.8956 12.096ZM62.9627 5.826C63.4067 5.826 63.8067 5.9 64.1627 6.048C64.5187 6.196 64.8227 6.406 65.0747 6.678C65.3267 6.95 65.5187 7.28 65.6507 7.668C65.7867 8.052 65.8547 8.482 65.8547 8.958C65.8547 9.438 65.7867 9.87 65.6507 10.254C65.5187 10.638 65.3267 10.966 65.0747 11.238C64.8227 11.51 64.5187 11.72 64.1627 11.868C63.8067 12.012 63.4067 12.084 62.9627 12.084C62.5147 12.084 62.1107 12.012 61.7507 11.868C61.3947 11.72 61.0907 11.51 60.8387 11.238C60.5867 10.966 60.3927 10.638 60.2567 10.254C60.1247 9.87 60.0587 9.438 60.0587 8.958C60.0587 8.482 60.1247 8.052 60.2567 7.668C60.3927 7.28 60.5867 6.95 60.8387 6.678C61.0907 6.406 61.3947 6.196 61.7507 6.048C62.1107 5.9 62.5147 5.826 62.9627 5.826ZM62.9627 11.25C63.5627 11.25 64.0107 11.05 64.3067 10.65C64.6027 10.246 64.7507 9.684 64.7507 8.964C64.7507 8.24 64.6027 7.676 64.3067 7.272C64.0107 6.868 63.5627 6.666 62.9627 6.666C62.6587 6.666 62.3927 6.718 62.1647 6.822C61.9407 6.926 61.7527 7.076 61.6007 7.272C61.4527 7.468 61.3407 7.71 61.2647 7.998C61.1927 8.282 61.1567 8.604 61.1567 8.964C61.1567 9.684 61.3047 10.246 61.6007 10.65C61.9007 11.05 62.3547 11.25 62.9627 11.25ZM68.2173 6.804C68.3493 6.656 68.4893 6.522 68.6373 6.402C68.7853 6.282 68.9413 6.18 69.1053 6.096C69.2733 6.008 69.4493 5.942 69.6333 5.898C69.8213 5.85 70.0233 5.826 70.2393 5.826C70.5713 5.826 70.8633 5.882 71.1153 5.994C71.3713 6.102 71.5833 6.258 71.7513 6.462C71.9233 6.662 72.0533 6.904 72.1413 7.188C72.2293 7.472 72.2733 7.786 72.2733 8.13V12H71.1993V8.13C71.1993 7.67 71.0933 7.314 70.8813 7.062C70.6733 6.806 70.3553 6.678 69.9273 6.678C69.6113 6.678 69.3153 6.754 69.0393 6.906C68.7673 7.058 68.5153 7.264 68.2833 7.524V12H67.2093V5.922H67.8513C68.0033 5.922 68.0973 5.996 68.1333 6.144L68.2173 6.804Z" fill="#858585"/>
<path d="M36.471 22.925V27.02C35.9577 27.398 35.4093 27.6757 34.826 27.853C34.2473 28.0257 33.6267 28.112 32.964 28.112C32.138 28.112 31.389 27.9837 30.717 27.727C30.0497 27.4703 29.478 27.1133 29.002 26.656C28.5307 26.1987 28.1667 25.6527 27.91 25.018C27.6533 24.3833 27.525 23.6903 27.525 22.939C27.525 22.1783 27.6487 21.4807 27.896 20.846C28.1433 20.2113 28.4933 19.6653 28.946 19.208C29.4033 18.7507 29.9563 18.396 30.605 18.144C31.2537 17.892 31.9817 17.766 32.789 17.766C33.1997 17.766 33.5823 17.7987 33.937 17.864C34.2963 17.9293 34.6277 18.0203 34.931 18.137C35.239 18.249 35.519 18.3867 35.771 18.55C36.023 18.7133 36.254 18.893 36.464 19.089L35.925 19.943C35.841 20.0783 35.7313 20.1623 35.596 20.195C35.4607 20.223 35.3137 20.188 35.155 20.09C35.001 20.0013 34.847 19.9127 34.693 19.824C34.539 19.7353 34.3663 19.6583 34.175 19.593C33.9883 19.5277 33.776 19.474 33.538 19.432C33.3047 19.39 33.034 19.369 32.726 19.369C32.2267 19.369 31.774 19.453 31.368 19.621C30.9667 19.789 30.6237 20.0293 30.339 20.342C30.0543 20.6547 29.835 21.0303 29.681 21.469C29.527 21.9077 29.45 22.3977 29.45 22.939C29.45 23.5177 29.5317 24.0357 29.695 24.493C29.863 24.9457 30.0963 25.3307 30.395 25.648C30.6983 25.9607 31.0623 26.201 31.487 26.369C31.9117 26.5323 32.3853 26.614 32.908 26.614C33.2813 26.614 33.615 26.5743 33.909 26.495C34.203 26.4157 34.49 26.3083 34.77 26.173V24.339H33.496C33.3747 24.339 33.279 24.3063 33.209 24.241C33.1437 24.171 33.111 24.087 33.111 23.989V22.925H36.471ZM41.1082 20.706C41.6402 20.706 42.1232 20.7923 42.5572 20.965C42.9958 21.1377 43.3692 21.3827 43.6772 21.7C43.9898 22.0173 44.2302 22.4047 44.3982 22.862C44.5662 23.3193 44.6502 23.8303 44.6502 24.395C44.6502 24.9643 44.5662 25.4777 44.3982 25.935C44.2302 26.3923 43.9898 26.782 43.6772 27.104C43.3692 27.426 42.9958 27.6733 42.5572 27.846C42.1232 28.0187 41.6402 28.105 41.1082 28.105C40.5715 28.105 40.0838 28.0187 39.6452 27.846C39.2065 27.6733 38.8308 27.426 38.5182 27.104C38.2102 26.782 37.9698 26.3923 37.7972 25.935C37.6292 25.4777 37.5452 24.9643 37.5452 24.395C37.5452 23.8303 37.6292 23.3193 37.7972 22.862C37.9698 22.4047 38.2102 22.0173 38.5182 21.7C38.8308 21.3827 39.2065 21.1377 39.6452 20.965C40.0838 20.7923 40.5715 20.706 41.1082 20.706ZM41.1082 26.775C41.7055 26.775 42.1465 26.5743 42.4312 26.173C42.7205 25.7717 42.8652 25.1837 42.8652 24.409C42.8652 23.6343 42.7205 23.044 42.4312 22.638C42.1465 22.232 41.7055 22.029 41.1082 22.029C40.5015 22.029 40.0512 22.2343 39.7572 22.645C39.4678 23.051 39.3232 23.639 39.3232 24.409C39.3232 25.179 39.4678 25.767 39.7572 26.173C40.0512 26.5743 40.5015 26.775 41.1082 26.775ZM49.1472 20.706C49.6792 20.706 50.1622 20.7923 50.5962 20.965C51.0349 21.1377 51.4082 21.3827 51.7162 21.7C52.0289 22.0173 52.2692 22.4047 52.4372 22.862C52.6052 23.3193 52.6892 23.8303 52.6892 24.395C52.6892 24.9643 52.6052 25.4777 52.4372 25.935C52.2692 26.3923 52.0289 26.782 51.7162 27.104C51.4082 27.426 51.0349 27.6733 50.5962 27.846C50.1622 28.0187 49.6792 28.105 49.1472 28.105C48.6106 28.105 48.1229 28.0187 47.6842 27.846C47.2456 27.6733 46.8699 27.426 46.5572 27.104C46.2492 26.782 46.0089 26.3923 45.8362 25.935C45.6682 25.4777 45.5842 24.9643 45.5842 24.395C45.5842 23.8303 45.6682 23.3193 45.8362 22.862C46.0089 22.4047 46.2492 22.0173 46.5572 21.7C46.8699 21.3827 47.2456 21.1377 47.6842 20.965C48.1229 20.7923 48.6106 20.706 49.1472 20.706ZM49.1472 26.775C49.7446 26.775 50.1856 26.5743 50.4702 26.173C50.7596 25.7717 50.9042 25.1837 50.9042 24.409C50.9042 23.6343 50.7596 23.044 50.4702 22.638C50.1856 22.232 49.7446 22.029 49.1472 22.029C48.5406 22.029 48.0902 22.2343 47.7962 22.645C47.5069 23.051 47.3622 23.639 47.3622 24.409C47.3622 25.179 47.5069 25.767 47.7962 26.173C48.0902 26.5743 48.5406 26.775 49.1472 26.775ZM56.5786 24.234C56.7933 24.234 56.9799 24.206 57.1386 24.15C57.2973 24.0893 57.4279 24.0077 57.5306 23.905C57.6379 23.8023 57.7173 23.6787 57.7686 23.534C57.8246 23.3893 57.8526 23.2307 57.8526 23.058C57.8526 22.7033 57.7453 22.4233 57.5306 22.218C57.3206 22.008 57.0033 21.903 56.5786 21.903C56.1539 21.903 55.8343 22.008 55.6196 22.218C55.4096 22.4233 55.3046 22.7033 55.3046 23.058C55.3046 23.226 55.3303 23.3823 55.3816 23.527C55.4376 23.6717 55.5169 23.7977 55.6196 23.905C55.7269 24.0077 55.8599 24.0893 56.0186 24.15C56.1819 24.206 56.3686 24.234 56.5786 24.234ZM58.5316 28.322C58.5316 28.182 58.4896 28.0677 58.4056 27.979C58.3216 27.8903 58.2073 27.8227 58.0626 27.776C57.9179 27.7247 57.7476 27.6873 57.5516 27.664C57.3603 27.6407 57.1549 27.6243 56.9356 27.615C56.7209 27.601 56.4969 27.5893 56.2636 27.58C56.0349 27.5707 55.8109 27.552 55.5916 27.524C55.4003 27.6313 55.2439 27.7573 55.1226 27.902C55.0059 28.0467 54.9476 28.2147 54.9476 28.406C54.9476 28.532 54.9779 28.6487 55.0386 28.756C55.1039 28.868 55.2043 28.9637 55.3396 29.043C55.4796 29.1223 55.6593 29.183 55.8786 29.225C56.0979 29.2717 56.3663 29.295 56.6836 29.295C57.0056 29.295 57.2833 29.2693 57.5166 29.218C57.7499 29.1713 57.9413 29.1037 58.0906 29.015C58.2446 28.931 58.3566 28.8283 58.4266 28.707C58.4966 28.5903 58.5316 28.462 58.5316 28.322ZM60.2536 21.063V21.707C60.2536 21.9123 60.1299 22.0383 59.8826 22.085L59.2386 22.204C59.3366 22.4513 59.3856 22.722 59.3856 23.016C59.3856 23.3707 59.3133 23.6927 59.1686 23.982C59.0286 24.2667 58.8326 24.5093 58.5806 24.71C58.3286 24.9107 58.0299 25.067 57.6846 25.179C57.3439 25.2863 56.9753 25.34 56.5786 25.34C56.4386 25.34 56.3033 25.333 56.1726 25.319C56.0419 25.305 55.9136 25.2863 55.7876 25.263C55.5636 25.3983 55.4516 25.55 55.4516 25.718C55.4516 25.8627 55.5169 25.97 55.6476 26.04C55.7829 26.1053 55.9603 26.152 56.1796 26.18C56.3989 26.208 56.6486 26.2267 56.9286 26.236C57.2086 26.2407 57.4956 26.2547 57.7896 26.278C58.0836 26.3013 58.3706 26.3433 58.6506 26.404C58.9306 26.46 59.1803 26.551 59.3996 26.677C59.6189 26.803 59.7939 26.9757 59.9246 27.195C60.0599 27.4097 60.1276 27.6873 60.1276 28.028C60.1276 28.3453 60.0483 28.6533 59.8896 28.952C59.7356 29.2507 59.5093 29.5167 59.2106 29.75C58.9166 29.9833 58.5526 30.17 58.1186 30.31C57.6893 30.4547 57.1993 30.527 56.6486 30.527C56.1073 30.527 55.6359 30.4733 55.2346 30.366C54.8333 30.2633 54.4996 30.1233 54.2336 29.946C53.9676 29.7733 53.7693 29.5727 53.6386 29.344C53.5079 29.1153 53.4426 28.8773 53.4426 28.63C53.4426 28.294 53.5429 28.014 53.7436 27.79C53.9489 27.5613 54.2289 27.3793 54.5836 27.244C54.3923 27.146 54.2406 27.0153 54.1286 26.852C54.0166 26.6887 53.9606 26.474 53.9606 26.208C53.9606 26.1007 53.9793 25.991 54.0166 25.879C54.0586 25.7623 54.1169 25.648 54.1916 25.536C54.2709 25.424 54.3689 25.319 54.4856 25.221C54.6023 25.1183 54.7399 25.0273 54.8986 24.948C54.5346 24.752 54.2476 24.4907 54.0376 24.164C53.8323 23.8373 53.7296 23.4547 53.7296 23.016C53.7296 22.6613 53.7996 22.3417 53.9396 22.057C54.0843 21.7677 54.2826 21.5227 54.5346 21.322C54.7913 21.1167 55.0923 20.9603 55.4376 20.853C55.7876 20.7457 56.1679 20.692 56.5786 20.692C56.8866 20.692 57.1759 20.7247 57.4466 20.79C57.7173 20.8507 57.9646 20.9417 58.1886 21.063H60.2536ZM63.1001 17.598V28H61.3711V17.598H63.1001ZM69.4498 23.583C69.4498 23.359 69.4171 23.149 69.3518 22.953C69.2911 22.7523 69.1978 22.5773 69.0718 22.428C68.9458 22.2787 68.7848 22.162 68.5888 22.078C68.3974 21.9893 68.1734 21.945 67.9168 21.945C67.4174 21.945 67.0231 22.0873 66.7338 22.372C66.4491 22.6567 66.2671 23.0603 66.1878 23.583H69.4498ZM66.1528 24.626C66.1808 24.9947 66.2461 25.3143 66.3488 25.585C66.4514 25.851 66.5868 26.0727 66.7548 26.25C66.9228 26.4227 67.1211 26.5533 67.3498 26.642C67.5831 26.726 67.8398 26.768 68.1198 26.768C68.3998 26.768 68.6401 26.7353 68.8408 26.67C69.0461 26.6047 69.2234 26.5323 69.3728 26.453C69.5268 26.3737 69.6598 26.3013 69.7718 26.236C69.8884 26.1707 70.0004 26.138 70.1078 26.138C70.2524 26.138 70.3598 26.1917 70.4298 26.299L70.9268 26.929C70.7354 27.153 70.5208 27.342 70.2828 27.496C70.0448 27.6453 69.7951 27.7667 69.5338 27.86C69.2771 27.9487 69.0134 28.0117 68.7428 28.049C68.4768 28.0863 68.2178 28.105 67.9658 28.105C67.4664 28.105 67.0021 28.0233 66.5728 27.86C66.1434 27.692 65.7701 27.447 65.4528 27.125C65.1354 26.7983 64.8858 26.397 64.7038 25.921C64.5218 25.4403 64.4307 24.885 64.4307 24.255C64.4307 23.765 64.5101 23.3053 64.6688 22.876C64.8274 22.442 65.0538 22.0663 65.3478 21.749C65.6464 21.427 66.0081 21.1727 66.4328 20.986C66.8621 20.7993 67.3451 20.706 67.8818 20.706C68.3344 20.706 68.7521 20.7783 69.1348 20.923C69.5174 21.0677 69.8464 21.28 70.1218 21.56C70.3971 21.8353 70.6118 22.176 70.7658 22.582C70.9244 22.9833 71.0037 23.443 71.0037 23.961C71.0037 24.2223 70.9758 24.3997 70.9198 24.493C70.8638 24.5817 70.7564 24.626 70.5978 24.626H66.1528ZM79.2686 22.967C79.6139 22.967 79.9149 22.925 80.1716 22.841C80.4282 22.7523 80.6406 22.6287 80.8086 22.47C80.9812 22.3067 81.1096 22.1107 81.1936 21.882C81.2776 21.6487 81.3196 21.3897 81.3196 21.105C81.3196 20.8343 81.2776 20.5893 81.1936 20.37C81.1096 20.1507 80.9836 19.964 80.8156 19.81C80.6476 19.656 80.4352 19.5393 80.1786 19.46C79.9219 19.376 79.6186 19.334 79.2686 19.334H77.8616V22.967H79.2686ZM79.2686 17.878C79.9452 17.878 80.5309 17.9573 81.0256 18.116C81.5202 18.2747 81.9286 18.4963 82.2506 18.781C82.5726 19.0657 82.8106 19.4063 82.9646 19.803C83.1232 20.1997 83.2026 20.6337 83.2026 21.105C83.2026 21.595 83.1209 22.0453 82.9576 22.456C82.7942 22.862 82.5492 23.212 82.2226 23.506C81.8959 23.8 81.4852 24.0287 80.9906 24.192C80.5006 24.3553 79.9266 24.437 79.2686 24.437H77.8616V28H75.9786V17.878H79.2686ZM86.0962 17.598V28H84.3672V17.598H86.0962ZM91.6128 24.934C91.1135 24.9573 90.6935 25.0017 90.3528 25.067C90.0122 25.1277 89.7392 25.207 89.5338 25.305C89.3285 25.403 89.1815 25.5173 89.0928 25.648C89.0042 25.7787 88.9598 25.921 88.9598 26.075C88.9598 26.3783 89.0485 26.5953 89.2258 26.726C89.4078 26.8567 89.6435 26.922 89.9328 26.922C90.2875 26.922 90.5932 26.859 90.8498 26.733C91.1112 26.6023 91.3655 26.4063 91.6128 26.145V24.934ZM87.6508 21.819C88.4768 21.063 89.4708 20.685 90.6328 20.685C91.0528 20.685 91.4285 20.755 91.7598 20.895C92.0912 21.0303 92.3712 21.2217 92.5998 21.469C92.8285 21.7117 93.0012 22.0033 93.1178 22.344C93.2392 22.6847 93.2998 23.058 93.2998 23.464V28H92.5158C92.3525 28 92.2265 27.9767 92.1378 27.93C92.0492 27.8787 91.9792 27.7783 91.9278 27.629L91.7738 27.111C91.5918 27.2743 91.4145 27.419 91.2418 27.545C91.0692 27.6663 90.8895 27.769 90.7028 27.853C90.5162 27.937 90.3155 28 90.1008 28.042C89.8908 28.0887 89.6575 28.112 89.4008 28.112C89.0975 28.112 88.8175 28.0723 88.5608 27.993C88.3042 27.909 88.0825 27.7853 87.8958 27.622C87.7092 27.4587 87.5645 27.2557 87.4618 27.013C87.3592 26.7703 87.3078 26.488 87.3078 26.166C87.3078 25.984 87.3382 25.8043 87.3988 25.627C87.4595 25.445 87.5575 25.2723 87.6928 25.109C87.8328 24.9457 88.0125 24.7917 88.2318 24.647C88.4512 24.5023 88.7195 24.3763 89.0368 24.269C89.3588 24.1617 89.7322 24.0753 90.1568 24.01C90.5815 23.94 91.0668 23.898 91.6128 23.884V23.464C91.6128 22.9833 91.5102 22.6287 91.3048 22.4C91.0995 22.1667 90.8032 22.05 90.4158 22.05C90.1358 22.05 89.9025 22.0827 89.7158 22.148C89.5338 22.2133 89.3728 22.288 89.2328 22.372C89.0928 22.4513 88.9645 22.5237 88.8478 22.589C88.7358 22.6543 88.6098 22.687 88.4698 22.687C88.3485 22.687 88.2458 22.6567 88.1618 22.596C88.0778 22.5307 88.0102 22.456 87.9588 22.372L87.6508 21.819ZM101.452 20.818L97.5392 29.974C97.4879 30.0953 97.4202 30.1863 97.3362 30.247C97.2569 30.3123 97.1332 30.345 96.9652 30.345H95.6772L97.0212 27.461L94.1162 20.818H95.6352C95.7706 20.818 95.8756 20.8507 95.9502 20.916C96.0296 20.9813 96.0879 21.056 96.1252 21.14L97.6512 24.864C97.7026 24.99 97.7446 25.116 97.7772 25.242C97.8146 25.368 97.8496 25.4963 97.8822 25.627C97.9242 25.4963 97.9662 25.368 98.0082 25.242C98.0502 25.1113 98.0969 24.983 98.1482 24.857L99.5902 21.14C99.6276 21.0467 99.6882 20.9697 99.7722 20.909C99.8609 20.8483 99.9589 20.818 100.066 20.818H101.452Z" fill="black"/>
<rect width="18" height="18" transform="translate(1 6)" fill="white"/>
<path d="M12.436 14.2373L4.67684 6.45731L14.5487 12.1245L12.436 14.2373ZM2.6524 6C2.19509 6.23906 1.88965 6.675 1.88965 7.24088V22.7552C1.88965 23.3211 2.19565 23.757 2.6524 23.9961L11.6738 14.9961L2.6524 6ZM17.6003 13.9313L15.5297 12.7326L13.2201 15L15.5297 17.2674L17.6425 16.0687C18.2753 15.5664 18.2753 14.4341 17.6003 13.9313V13.9313ZM4.6774 23.5432L14.5493 17.8761L12.4365 15.7633L4.6774 23.5432Z" fill="black"/>
</svg>
